<svg width="79" viewBox="0 0 79 40" fill="none" xmlns="http://www.w3.org/2000/svg">
    <path fill-rule="evenodd" clip-rule="evenodd" d="M59.2015 24.7351C59.2183 24.7351 59.2319 24.7215 59.2319 24.7047C59.2319 24.6896 59.2209 24.6772 59.2065 24.6748C58.5753 24.5832 58.0051 24.3835 57.4852 24.0502C56.3298 23.3092 55.4239 21.9066 54.6531 19.5592C54.5518 19.2505 50.7005 6.1438 50.4491 5.2884C49.5716 2.30244 47.9203 0.964138 46.3925 0.399577C45.6086 0.109884 44.8572 0.0238037 44.2596 0.0238037C43.9209 0.0238037 43.1944 0.0238037 43.1944 0.0238037C43.1777 0.0238037 43.1641 0.0373997 43.1641 0.054108C43.1641 0.0691782 43.1751 0.0817095 43.1895 0.0840847C43.6154 0.145267 44.0719 0.259112 44.535 0.453715C45.9493 1.04784 47.425 2.39442 48.2756 5.2884C48.4655 5.93494 52.3439 19.1378 52.427 19.3977C53.2115 21.85 54.1354 23.3011 55.3222 24.0571C56.0718 24.5346 56.9264 24.7351 57.9172 24.7351H59.2015Z" fill="#F4F4F1"/>
    <path fill-rule="evenodd" clip-rule="evenodd" d="M62.6079 24.7351C62.6243 24.7351 62.6383 24.7215 62.6383 24.7047C62.6383 24.6896 62.6268 24.6772 62.6129 24.6748V24.6746C60.8834 24.4509 59.7652 22.023 59.1476 19.9562C58.4995 17.7875 56.1591 9.86877 54.7661 5.2884C53.3668 0.687222 49.013 0.0269979 47.0414 0.0238037H47.0419C47.0251 0.0238037 47.0115 0.0373997 47.0115 0.054108C47.0115 0.0691782 47.0224 0.0817095 47.0369 0.0840847L47.0369 0.0842485C48.8782 0.332334 51.4941 1.44745 52.6228 5.2884C53.6136 8.65963 56.7619 19.3695 56.883 19.7279C57.6389 21.9663 58.5252 23.3177 59.6471 24.0427C60.4022 24.5305 61.2637 24.7351 62.264 24.7351H62.6079Z" fill="#F4F4F1"/>
    <path fill-rule="evenodd" clip-rule="evenodd" d="M17.2513 39.7149C17.031 39.7149 16.8345 39.7149 16.722 39.7149C15.1484 39.7149 13.2562 38.915 12.2149 35.2413L2.83377 3.22767C2.2783 1.30622 1.45206 0.341231 0.0516754 0.101745H0.0518392C0.0374242 0.0993695 0.0263672 0.0869202 0.0263672 0.0718499C0.0263672 0.0549778 0.0399632 0.0413818 0.0567534 0.0413818H1.46787C3.34338 0.0413818 4.36357 0.980487 5.01314 3.22767C5.01314 3.22767 13.6863 32.662 14.4746 35.4429C15.0577 37.5003 15.7395 38.8996 16.7941 39.4652C16.9646 39.5567 17.1082 39.6164 17.256 39.6544H17.2562C17.2707 39.6569 17.2816 39.6694 17.2816 39.6844C17.2816 39.7013 17.268 39.7149 17.2513 39.7149Z" fill="#F4F4F1"/>
    <path fill-rule="evenodd" clip-rule="evenodd" d="M14.0758 4.42192C13.1784 1.31737 11.769 0.0200195 9.17787 0.0200195H7.91344C7.89665 0.0200195 7.88306 0.0336155 7.88306 0.0504057C7.88306 0.065476 7.89411 0.0780072 7.90853 0.0803824C9.93294 0.367946 11.1129 1.70068 11.8995 4.42192C11.8995 4.42192 19.6631 30.8592 20.6712 34.3204C20.8923 33.5725 21.2656 32.3091 21.7352 30.7185C20.8087 27.5351 14.0758 4.42192 14.0758 4.42192Z" fill="#F4F4F1"/>
    <path fill-rule="evenodd" clip-rule="evenodd" d="M17.9769 39.7149H18.8992C20.0549 39.7149 20.8829 39.409 21.5033 38.9036C22.513 38.0808 22.9726 36.7289 23.398 35.3024C23.4617 35.0889 31.6781 7.22197 31.9675 6.13405C32.946 2.45601 35.1336 0.853978 37.4676 0.285895C37.855 0.191624 38.2465 0.126101 38.637 0.0840847H38.6376C38.6521 0.0817095 38.663 0.0691782 38.663 0.054108C38.663 0.0373997 38.6494 0.0238037 38.6327 0.0238037H37.6055C34.5279 0.0238037 31.0911 1.24499 29.7904 6.13405C29.3213 7.89719 21.2845 35.0889 21.2209 35.3024C20.7955 36.7289 20.3122 38.2327 19.3024 39.0554C18.8915 39.3902 18.5154 39.5708 17.9723 39.6545H17.972C17.9576 39.657 17.9465 39.6695 17.9465 39.6845C17.9465 39.7014 17.9601 39.715 17.9769 39.715V39.7149Z" fill="#F4F4F1"/>
    <path fill-rule="evenodd" clip-rule="evenodd" d="M60.1825 20.5302L65.0168 4.41826C65.8039 1.69718 66.9833 0.364447 69.0079 0.0767203C69.0227 0.0743451 69.0333 0.0618139 69.0333 0.0467436C69.0333 0.0299534 69.0202 0.0163574 69.003 0.0163574H67.7384C65.1478 0.0163574 63.7383 1.31371 62.8406 4.41826L59.1023 16.9777C59.1023 16.9777 60.0912 20.274 60.1825 20.5302Z" fill="#F4F4F1"/>
    <path fill-rule="evenodd" clip-rule="evenodd" d="M72.9048 0.0413818H71.5592C69.3551 0.0413818 68.1569 1.14462 67.3935 3.78462C67.3935 3.78462 62.6104 19.7729 62.5703 19.9087C62.2189 21.0387 61.7767 22.1358 61.3318 22.8439C61.753 23.4206 62.1976 23.7737 62.6374 23.8622C63.4687 23.1494 64.1575 21.8288 64.7735 19.8221C64.8062 19.7157 69.5763 3.78462 69.5763 3.78462C70.2372 1.49795 71.225 0.364245 72.9089 0.101745H72.9106C72.9245 0.0993695 72.9351 0.0869202 72.9351 0.0718499C72.9351 0.0549778 72.922 0.0413818 72.9048 0.0413818Z" fill="#F4F4F1"/>
    <path fill-rule="evenodd" clip-rule="evenodd" d="M63.1092 25.5406H60.9428C59.9595 28.785 58.6589 33.0799 58.1756 34.6985C56.8288 39.209 58.9535 39.6731 59.7645 39.6731C59.8745 39.6731 60.8517 39.6731 61.4758 39.6731C61.4925 39.673 61.5061 39.6595 61.5061 39.6427C61.5061 39.6283 61.4961 39.6162 61.4826 39.6131H61.4823C60.554 39.3921 59.2923 38.43 60.4065 34.6985C60.4065 34.6985 62.3705 28.0489 63.1092 25.5406Z" fill="#F4F4F1"/>
    <path fill-rule="evenodd" clip-rule="evenodd" d="M75.7649 0.0756556C75.7772 0.0717242 75.7862 0.0602577 75.7862 0.0467436C75.7862 0.0299534 75.7722 0.0163574 75.7559 0.0163574V0.0164393L75.4545 0.0163574C73.5789 0.0163574 72.5584 0.955463 71.9089 3.20257C71.9089 3.20257 68.2117 15.6425 67.0487 19.4967C65.8857 23.3509 65.0879 24.3834 63.5088 24.6559L63.4253 24.6748C63.4114 24.6772 63.3999 24.6896 63.3999 24.7047C63.3999 24.7215 63.4138 24.7351 63.4302 24.7351H64.5015C67.2518 24.7351 68.2756 22.9015 69.2429 19.6727C70.0537 16.9678 74.796 1.12091 74.796 1.12091C74.9311 0.673715 75.3177 0.210223 75.7649 0.0754918V0.0756556Z" fill="#F4F4F1"/>
    <path fill-rule="evenodd" clip-rule="evenodd" d="M65.2887 25.4844C64.5286 28.071 62.3631 35.4466 62.3631 35.4466C61.2188 39.2786 63.0241 39.673 63.7129 39.673H65.3862C65.4026 39.673 65.4165 39.6594 65.4165 39.6426C65.4165 39.6282 65.4067 39.6161 65.3927 39.613V39.6131C64.6081 39.4089 63.5827 38.5689 64.5147 35.4466C64.5147 35.4466 66.8875 27.4017 67.79 24.3322C67.2741 24.8549 66.4026 25.341 65.2887 25.4844Z" fill="#F4F4F1"/>
    <path fill-rule="evenodd" clip-rule="evenodd" d="M69.37 39.673C69.3863 39.673 69.4003 39.6594 69.4003 39.6426C69.4003 39.6281 69.3904 39.6161 69.3765 39.613C68.7139 39.4243 67.8818 38.6898 68.6623 36.0764C68.6623 36.0764 77.8371 4.85171 78.3474 3.0835C78.8585 1.31512 77.6242 0.20885 76.5144 0.0419307C76.5062 0.0407841 76.4702 0.0307099 76.462 0.0542981C76.4546 0.0778864 76.4857 0.0923833 76.4915 0.0957413C76.7126 0.212044 76.96 0.480033 76.8248 0.939511C76.6897 1.39899 66.5017 36.0764 66.5017 36.0764C65.5279 39.3374 67.0644 39.673 67.6508 39.673H69.37Z" fill="#F4F4F1"/>
    <path fill-rule="evenodd" clip-rule="evenodd" d="M54.8538 24.7351C54.8705 24.7351 54.8841 24.7215 54.8841 24.7047C54.8841 24.6896 54.8732 24.6771 54.8588 24.6747H54.8585C54.2354 24.5843 53.6717 24.3885 53.1572 24.0626C51.9441 23.2942 51.0054 21.8017 50.2098 19.2596C50.1416 19.042 46.2366 5.74689 46.1019 5.2884C45.2757 2.47714 43.9479 1.12631 42.6381 0.506707C41.8428 0.130524 41.0542 0.0238037 40.3886 0.0238037C39.9516 0.0238037 39.5602 0.0238037 39.2429 0.0238037H39.2378C39.2211 0.0238037 39.2075 0.0373997 39.2075 0.054108C39.2075 0.0691782 39.2185 0.0817095 39.2329 0.0840847V0.0841666C39.4475 0.1166 42.4276 0.208742 43.9283 5.2884C45.4289 10.3681 47.2273 16.4404 47.8347 18.5838C49.1489 23.2199 50.8442 24.7351 53.5699 24.7351H54.8538Z" fill="#F4F4F1"/>
    <path fill-rule="evenodd" clip-rule="evenodd" d="M41.0444 1.76746L41.0407 1.77057C39.9448 2.71098 39.0382 4.10703 38.499 6.13398C38.4419 6.3484 30.2983 34.0573 30.1198 34.6586C29.4353 36.9659 28.862 39.2576 26.2694 39.6545C26.2551 39.6569 26.2441 39.6694 26.2441 39.6844C26.2441 39.7013 26.2577 39.7149 26.2745 39.7149H26.79C26.79 39.7149 27.1617 39.709 27.2362 39.7061C29.8692 39.5997 31.1814 38.4809 32.3041 34.6586C33.124 31.8672 40.6169 6.35512 40.6832 6.13398C41.0031 5.06653 41.387 3.85116 41.9385 2.78617C41.8236 2.6014 41.4177 2.07959 41.0444 1.76746Z" fill="#F4F4F1"/>
    <path fill-rule="evenodd" clip-rule="evenodd" d="M39.8218 1.05742C38.9889 0.820553 37.8062 0.883946 36.7328 1.74418C35.6594 2.60449 34.6979 4.065 34.2066 5.91167C34.1495 6.12602 25.6387 35.0889 25.5751 35.3024C25.1497 36.7288 24.69 38.0808 23.6803 38.9036C23.2216 39.2773 22.6495 39.5418 21.9154 39.6544V39.6544C21.901 39.6569 21.8901 39.6694 21.8901 39.6844C21.8901 39.7013 21.9037 39.7149 21.9204 39.7149H23.2534C24.4091 39.7149 25.237 39.4091 25.8575 38.9036C26.8672 38.0808 27.3268 36.7289 27.7522 35.3024C27.8159 35.0889 36.2647 6.34838 36.3218 6.13396C36.861 4.10701 37.7676 2.71097 38.8635 1.77055C39.1796 1.4992 39.5118 1.26676 39.8553 1.06749C39.8499 1.06561 39.8384 1.06217 39.8218 1.05742Z" fill="#F4F4F1"/>
    <path fill-rule="evenodd" clip-rule="evenodd" d="M19.6689 37.2349C19.2941 36.6898 18.9768 36.0328 18.7526 35.2414C18.4289 34.0995 9.53622 3.78462 9.53622 3.78462C8.77312 1.14462 7.57455 0.0413818 5.37118 0.0413818H4.0255C4.00871 0.0413818 3.99512 0.0550597 3.99512 0.0718499C3.99512 0.0869202 4.00617 0.0993695 4.02059 0.101745C5.70493 0.364245 6.69261 1.49795 7.35349 3.78462L16.5733 35.2414C17.0502 36.924 17.7057 38.0032 18.4273 38.6794C18.9387 38.3837 19.3745 37.9018 19.6689 37.2349Z" fill="#F4F4F1"/>
</svg>
